<?xml version="1.0" standalone="no"?>
<!DOCTYPE svg PUBLIC "-//W3C//DTD SVG 20010904//EN"
 "http://www.w3.org/TR/2001/REC-SVG-20010904/DTD/svg10.dtd">
<svg version="1.0" xmlns="http://www.w3.org/2000/svg"
 width="920.000000pt" height="920.000000pt" viewBox="0 0 920.000000 920.000000"
 preserveAspectRatio="xMidYMid meet">
<metadata>
Created by potrace 1.11, written by Peter Selinger 2001-2013
</metadata>
<g transform="translate(0.000000,920.000000) scale(0.100000,-0.100000)"
fill="#000000" stroke="none">
<path d="M1545 7629 c-207 -32 -379 -159 -475 -348 -33 -66 -78 -205 -85 -264
-3 -23 -10 -69 -14 -102 -9 -59 -7 -466 3 -515 2 -14 7 -61 11 -105 4 -44 8
-91 10 -105 3 -24 6 -52 21 -210 3 -36 8 -78 10 -95 2 -16 5 -124 8 -240 5
-211 -4 -310 -36 -390 -15 -38 -62 -109 -91 -136 -31 -29 -106 -66 -153 -75
-21 -5 -42 -9 -46 -10 -5 -1 -23 -2 -42 -3 l-33 -1 -2 -180 -2 -180 43 0 c47
0 118 -19 169 -45 43 -23 110 -92 130 -135 61 -128 68 -174 63 -413 -2 -111
-6 -220 -8 -242 -6 -52 -14 -125 -22 -200 -3 -33 -7 -71 -9 -85 -2 -14 -7 -65
-11 -115 -3 -49 -8 -99 -11 -110 -13 -52 -10 -484 3 -570 59 -373 216 -588
487 -666 48 -14 116 -22 202 -26 l130 -6 -1 189 c-1 104 -2 191 -3 194 0 3
-35 6 -76 7 -42 0 -98 7 -126 13 -98 24 -195 124 -234 240 -36 108 -45 199
-41 430 2 124 6 236 9 250 3 14 8 59 12 100 3 41 10 104 15 140 22 157 32 545
17 680 -21 197 -98 371 -207 467 -14 12 -51 36 -82 53 -32 17 -58 34 -58 38 0
4 21 16 47 26 64 27 172 135 210 211 79 157 102 301 97 585 -3 173 -8 268 -20
365 -4 28 -7 64 -9 80 -3 38 -16 161 -22 200 -2 17 -6 127 -9 245 -5 173 -3
233 10 307 47 271 157 373 406 377 l65 1 0 193 0 193 -100 -2 c-55 -2 -122 -6
-150 -10z"/>
<path d="M7325 7440 c0 -104 2 -190 5 -191 3 0 41 -2 85 -4 222 -10 334 -123
382 -385 16 -89 9 -493 -12 -655 -2 -16 -6 -57 -10 -90 -4 -33 -8 -74 -10 -91
-25 -212 -25 -580 -1 -709 43 -226 144 -386 283 -447 29 -13 53 -27 53 -33 0
-5 -19 -18 -43 -28 -54 -22 -128 -86 -176 -151 -68 -94 -109 -214 -129 -376
-13 -112 -5 -512 13 -621 2 -13 6 -49 9 -80 10 -115 18 -185 23 -214 2 -16 6
-133 8 -260 3 -178 0 -248 -12 -310 -48 -250 -157 -352 -383 -360 -41 -2 -77
-4 -80 -4 -3 -1 -5 -87 -5 -192 l0 -192 130 6 c142 6 218 23 310 69 153 75
252 192 321 376 34 93 38 108 58 247 13 84 14 460 2 540 -2 17 -7 65 -11 107
-3 43 -8 92 -10 109 -3 17 -7 65 -11 107 -3 41 -7 83 -9 92 -10 51 -19 260
-19 420 0 196 11 266 56 356 55 112 173 178 326 183 22 1 22 1 22 181 l0 180
-37 1 c-139 3 -258 78 -316 200 -46 97 -56 173 -52 394 2 110 6 211 9 225 2
14 7 65 11 114 4 50 8 98 10 107 2 10 7 49 10 86 4 37 8 78 10 91 11 69 20
272 20 447 -1 258 -30 421 -102 570 -121 254 -328 375 -638 375 l-90 0 0 -190z"/>
<path d="M4407 6924 c-3 -3 -54 -10 -144 -19 -17 -2 -40 -6 -50 -9 -10 -3 -34
-8 -53 -11 -91 -16 -290 -78 -395 -123 -150 -65 -424 -225 -486 -284 -8 -7
-39 -34 -69 -59 -255 -215 -467 -504 -595 -814 -45 -107 -94 -259 -109 -335
-3 -14 -7 -36 -11 -50 -3 -14 -7 -38 -10 -55 -2 -16 -6 -41 -9 -55 -14 -61
-21 -188 -20 -350 1 -182 7 -262 28 -356 2 -12 7 -37 10 -55 3 -19 10 -49 15
-67 5 -18 10 -36 11 -40 11 -90 131 -391 205 -515 19 -32 35 -63 35 -68 0 -5
4 -9 9 -9 5 0 13 -10 17 -22 4 -13 10 -25 13 -28 4 -3 28 -35 54 -73 166 -233
418 -463 667 -606 112 -65 337 -167 389 -177 13 -3 31 -9 40 -13 9 -5 18 -9
21 -9 3 -1 12 -3 20 -5 65 -20 134 -35 141 -31 5 3 9 0 9 -5 0 -6 3 -10 8 -9
4 1 30 -2 57 -7 28 -5 61 -10 75 -11 14 -2 48 -6 75 -10 106 -15 548 -6 577
12 3 2 27 7 51 9 53 7 57 8 162 36 44 11 87 23 95 24 8 2 16 4 18 5 1 2 5 3
10 5 4 1 20 7 35 13 16 7 32 12 36 12 28 0 347 156 382 186 8 8 19 14 22 14 4
0 25 12 46 28 21 15 49 34 61 42 24 16 32 22 125 98 89 72 222 207 293 297 35
44 70 88 78 98 8 9 14 21 14 26 0 5 3 11 8 13 13 6 81 116 136 220 91 175 167
388 202 563 2 11 6 31 9 45 3 14 8 45 11 70 3 25 8 56 11 70 8 46 11 430 3
468 -5 20 -11 60 -14 87 -7 62 -15 112 -23 145 -3 14 -8 34 -10 45 -6 31 -42
153 -65 220 -99 285 -281 575 -503 800 -189 191 -461 374 -705 472 -112 45
-114 46 -131 49 -9 2 -29 9 -45 15 -16 7 -33 13 -39 13 -5 1 -28 7 -50 13 -73
22 -202 46 -310 60 -53 6 -432 13 -438 7z"/>
</g>
</svg>
