<svg version="1" xmlns="http://www.w3.org/2000/svg" width="1226.667" height="1226.667" viewBox="0 0 920.000000 920.000000"><path d="M203.6 188.2c-22.1 2-37.9 13.6-47.8 34.8-2.7 5.7-6.4 17.1-7.4 22.3-.2 1.7-.6 3.3-.8 3.6-.2.3-.7 3.1-1 6.1-.3 3-.8 6.6-1.1 8-1 4.9-1.6 31-2 77-.3 48.7-.7 54.2-5.1 63.7-4 8.8-11.2 15-20.1 17.5-2.1.6-8.3 1.3-13.8 1.7l-10 .6V442c-.1 10.2.1 19.2.3 20.2.3 1.3 1.7 1.6 7.5 1.7 23.6.2 36 12.1 40 38.2 1 6.4 1.4 24.6 1.5 71.5.1 54.8.5 76.1 1.7 82.3.1.9.6 4.1 1 7.1 1.9 14.9 7.7 32.6 14.1 42.7 9 14.2 21.7 22.7 37.9 25.3 7 1.1 24.2 1.6 25.1.8.5-.5.7-20 .4-37.6V691h-7.7c-13.8 0-22.7-3.8-29.8-12.5-5.5-6.7-9.7-17.2-11.1-27.3-.3-2.6-.9-5.6-1.2-6.7-.3-1.1-.6-27.9-.8-59.5-.3-56.7-.9-82.7-1.9-90.5-2.1-15.5-8.4-31.7-15.5-39.7-3.9-4.5-14.4-10.8-17.9-10.8-.9 0 1.2-1.4 4.6-3.1 7.2-3.5 13.9-9.6 17.9-16.4 2.6-4.6 7.2-15.8 8-20 .2-1.1.8-4.3 1.4-7 2-10.1 2.2-13.6 2.6-45 .8-59.6 1.2-79 1.8-82 4.7-21.9 11.4-32.7 23.6-38.4 4.4-2 7.4-2.6 15.5-2.9 5.5-.2 10.1-.5 10.3-.7.6-.5.4-39.6-.2-40.2-.8-.9-11-.9-20-.1zM698.6 188c-1 .4-1.3 5-1.3 20.7l-.1 20.3h8.2c19.6 0 30.4 7.7 37.2 26.4 4.9 13.7 5.5 21.7 5.9 80.6.4 49.1.5 51.3 3.1 65.4 2.1 11.3 7.9 23.8 14.4 30.9 4.9 5.4 13.6 10.6 17.7 10.8 1 0 0 .7-2.2 1.6-18.7 7.6-29 26.7-32.1 59.8-.3 3.8-.8 36.7-.9 73-.2 36.3-.6 67.3-.9 69-.3 1.6-.9 4.1-1.2 5.5-.3 1.4-.8 3.5-1 4.8-.9 4.4-3.6 11.7-6 15.9-5 8.7-10.7 13.6-18.7 16.2-5.4 1.8-6.3 1.9-15.3 2l-8.1.1.1 20.2.1 20.3 6.5.5c40.9 3.1 66.1-22.6 71.6-73.5.3-2.8.8-6.4 1.1-8 .2-1.7.6-34.5.7-73 .2-38.5.7-71.9 1-74.2.4-2.3.9-5.6 1.1-7.3.7-5.9 3.5-13.6 6.5-18.1 6.4-9.7 16.8-14 33.8-14h7.2V423h-6.2c-9.6-.1-13.8-.9-20.3-3.9-13.1-6.1-20.1-18.6-22-39.3-.4-4-.9-29.8-1.1-57.3-.2-27.5-.5-51.4-.7-53-.2-1.7-.8-5.7-1.1-9-5.1-43-24.9-68.7-55.6-72.1-7.4-.8-19.8-1-21.4-.4zM442.9 263.4c-.2.2-2.4.6-4.9.9-57.8 7-108.7 38.1-140.5 85.7-7.3 10.8-16.2 27.6-19.4 36.5-1.2 3.3-2.6 6.9-3.1 8-1.2 2.5-5.9 18.8-6.5 22.9-.3 1.7-1 5.6-1.6 8.6-2.5 13.5-3.3 42.7-1.6 57 2.3 18.8 9.8 44.8 17.8 61.1 12.2 25 29.6 47.6 49.9 64.8 10.5 8.8 10.9 9.1 20.5 15.3 19.3 12.5 46.3 23.9 64 27.1 21.5 3.9 23.3 4.1 42 4.2 23.3 0 37.2-1.8 56-7.4 76.1-22.7 130.4-86.8 140.2-165.6 1.6-12.6.8-44.7-1.3-55-.3-1.1-.7-3.6-1-5.5-.3-1.9-.7-4.3-1-5.2-.3-1-.7-2.9-1-4.2-.7-3.8-4.4-15.8-6-19.3-.8-1.7-1.4-3.6-1.4-4.3 0-2.6-13.1-28.1-19.1-37-15.4-23.2-34.3-42.1-56.7-56.8-9.4-6.1-32.7-18.2-35.2-18.2-.9 0-2-.4-2.5-.9-2.5-2.2-27.5-9-39-10.6-2.7-.4-6.1-.9-7.5-1.1-3-.6-40.6-1.4-41.1-1zm-7.9 22.2c-10.7 2-27.7 6.3-33.4 8.6-2.7 1-5 1.7-5.3 1.5-1.7-1.8 35.5-11.5 43.7-11.5 1.4 0-.9.7-5 1.4zm54.5.5c.7.7.5.8-.5.5-.8-.4-4.2-1-7.5-1.6l-6-.9 6.5.4c3.5.3 6.9 1 7.5 1.6zm15 2.5c5.5 1.4 14 4.1 18.8 6 9.1 3.5 26.8 12.2 30.2 14.9 1.1.8-3.2-1.2-9.5-4.4-15.4-8-25-11.7-40.5-15.7-7.1-1.8-12.1-3.3-11-3.4 1.2 0 6.6 1.2 12 2.6zm-121 13.3c-6.6 3.3-13.6 6.9-15.5 8.1-3.4 2.2-3.5 2.2-1 .1 3-2.6 24.9-13.9 27-14 .8-.1-3.9 2.6-10.5 5.8zm174 10.1c.3.5.1 1-.4 1-.6 0-1.1-.5-1.1-1 0-.6.2-1 .4-1 .3 0 .8.4 1.1 1zm-193.5.4c0 .2-1.2 1.1-2.7 2l-2.8 1.7 2.4-2c2.3-2.1 3.1-2.5 3.1-1.7zm210.5 12.7c4.4 3.7 10.2 9.1 13 12 3.6 3.9 2.9 3.4-2.5-1.7-4.1-3.9-11.3-10.2-16-13.9-4.7-3.7-8.9-7.2-9.5-7.8-1.9-2.1 7.1 4.8 15 11.4zM357 317.5c-.7.9-1.5 1.3-1.9 1-.3-.3.1-1 .9-1.5 2.1-1.4 2.4-1.2 1 .5zm-3 1.9c0 .2-2.1 2-4.7 4.1l-4.8 3.7 4.5-4.1c4.5-4.1 5-4.5 5-3.7zm-18.5 16.8c-11.5 12-12.3 12.8-10 9.8 2.4-3.1 17.8-19 18.4-19 .3 0-3.5 4.2-8.4 9.2zm262 11.8c1 1.1 1.6 2 1.3 2-.3 0-1.3-.9-2.3-2-1-1.1-1.6-2-1.3-2 .3 0 1.3.9 2.3 2zM322 351.4c0 .2-.8 1-1.7 1.7-1.6 1.3-1.7 1.2-.4-.4 1.3-1.6 2.1-2.1 2.1-1.3zm281.1 4.3c1.3 1.6 1.2 1.7-.3.4-1-.7-1.8-1.5-1.8-1.7 0-.8.8-.3 2.1 1.3zM317 358.4c0 .2-.8 1-1.7 1.7-1.6 1.3-1.7 1.2-.4-.4 1.3-1.6 2.1-2.1 2.1-1.3zm-4 6c0 .2-.8 1-1.7 1.7-1.6 1.3-1.7 1.2-.4-.4 1.3-1.6 2.1-2.1 2.1-1.3zm-5 7.6c-.6 1.1-1.3 2-1.6 2-.2 0 0-.9.6-2s1.3-2 1.6-2c.2 0 0 .9-.6 2z"/></svg>